<svg xmlns="http://www.w3.org/2000/svg" id="Outline" viewBox="0 0 512 512">
  <path fill="#FF69B4" d="M273.82,467.34a135.14,135.14,0,0,1,5-20.8,160.18,160.18,0,0,1,10-24.53c5.8-11.43,13.2-21.92,20.44-32.45,18.62-26.89,30-47.49,25.38-81.38-1.86-13.29-5.46-26.44-5-40a163.9,163.9,0,0,1,2.49-23.8,48.37,48.37,0,0,1,1.67-7.43c.37-1.28.7-2.56,1-3.85a1.38,1.38,0,0,1,2.68.62q-.47,2-.81,4.11c-.38,2.37-.71,4.75-1,7.13-1.45,10.17-2.72,20.44-2,30.72.76,12.61,4.43,24.91,5.48,37.49,3.69,37.42-13.59,59.53-33.94,88.29a194,194,0,0,0-15.89,25.95,166,166,0,0,0-14.21,42.7c-.31,2-.58,4-.73,6.07a18.63,18.63,0,0,0,.11,5.38.18.18,0,0,1-.18.3C272.33,479.11,273.36,471.05,273.82,467.34Z"/>
  <path fill="#FFD700" d="M412.79,79.36c-14.13-20.45-39.69-31.28-64.24-28.59-8.5,1.22-19.78,1.29-25.86,8.1-6-13.18-15-24.92-26.58-32.44a55.83,55.83,0,0,0-29.84-9,82.66,82.66,0,0,0-44.71,13.5c-9.5,6.21-17.76,14.5-23,24.61-.8,1.57-1.51,3.18-2.19,4.8a4.49,4.49,0,0,0-.91-1.37c-4.42-4.36-10.78-6.34-16.69-7.72-14.75-3.21-30.3-.47-44,5.59a79.21,79.21,0,0,0-14,7.81,83.72,83.72,0,0,0-11.43,10c-8.41,9-14.87,20-17.63,32.07-6.39,29.93,4.89,60.74,26.88,81.52,15.28,14.65,32,23.63,53.4,24.62l-.73,1.71c-1.89,3.71-.57,6.34,3.66,6.61a30.33,30.33,0,0,0,4.67,0c0,.09-.05.16,0,.24.68,2.55,1.47,5.06,2.29,7.57a222.77,222.77,0,0,0,9.11,24.4C196.57,265.66,203,277.6,207,290.55c8.32,24.61,7.25,51.24,3.06,76.56-1.82,11.19-5.12,22.05-7.68,33.07-4.13,17.69-5.63,36.37-1.29,54.17a107.94,107.94,0,0,0,12,29.49c3.6,6,7.49,11.91,12.84,16.44.16.14.39-.13.21-.27a36.7,36.7,0,0,1-5.74-6.2,103,103,0,0,1-18.58-43.22c-2.92-16.45-1-33.36,2.95-49.48,2.67-10.9,6-21.63,8-32.68,4.87-26.61,5.93-54.71-3.15-80.55-3.7-11.67-9.35-22.56-14.51-33.62a236,236,0,0,1-10.48-27.87c-.58-1.84-1.14-3.67-1.64-5.53l.53-.05c1.82-.3,3.79-.22,5.43-1.16,2.49-1.58,2.15-4.89,1.65-7.4a11.06,11.06,0,0,0-1.62-4.47c1.81-1.36,15.34-14.78,19.39-20.28,9.13-12.39,12-26.05,12.61-27.8.79,1,1.5,2,2.3,2.88,6.14,6.9,13.13,12.95,19.87,19.23,2.39,2.09,4.62,4.4,7.18,6.27a19.81,19.81,0,0,1,2.29,1.41c-1.85,3.12-3.24,7.19-1.22,10.44,1.52,2.22,4.37,2.09,6.82,2.31-8.82,13.06-13,29.4-13.54,45.09-1.59,30.26,15.69,56.72,22.45,85.42,9.76,43.17-13.2,71.9-21.51,111.27a125.66,125.66,0,0,0-2,41c.78,6.81,1.71,14.24,4.23,21.61.15.44.58.29.42-.12a68.63,68.63,0,0,1-2.87-12.32c-.78-8.17-1.1-13.67-1.2-21.89-1-35.08,19-66.35,26-99.89,6.34-29.09-5.61-57.36-14.92-84.41-5.39-16.85-8.43-34.8-5.88-52.45a94.81,94.81,0,0,1,9.53-29.82c.48-.92,1.8-3.11,1.78-3.35,5.65.26,15-.4,11.54-7.75-.85-2.42-1.61-4.88-2.6-7.24a1.33,1.33,0,0,0-.45-.67c8.91-3.84,17.05-9.87,24.44-16.57,0,.17,0,.37.06.54,2,9.67,7.24,18.3,13.08,26.13A68.8,68.8,0,0,0,326,214a67.4,67.4,0,0,0,9.31,4.85c-.5.43-.94.82-1.23,1-4,3-4.86,6.57.13,9.09a34.59,34.59,0,0,0,8.71,2.54,16.32,16.32,0,0,0,2.44.4c3.35.22,4.82-2.49,5.6-5.32.09-.3.17-.61.25-.93a23.87,23.87,0,0,1,.55-2.55c5-4.16,11.57-6.3,17.2-9.55,10.91-5.73,21.39-12.56,30-21.48C427.91,162.31,438.2,114.58,412.79,79.36ZM218.44,157.8c-1.9,4.46-3,10.47-5.41,14.64C206.81,183.1,204,191,191,201.28c-1.26,1-6.27,4.57-7.18,5a1.89,1.89,0,0,0,.44,3.43,2.73,2.73,0,0,0,1.45-.22,11.44,11.44,0,0,0,.35,2.67,20.37,20.37,0,0,1,.7,3.28,1,1,0,0,1-.86,1c-2.3.43-4.64.63-7,.84a22.66,22.66,0,0,1-4.94-.09c.36-2,.9-3.93,1.28-5.9,0-.06.08-.1.08-.17s0,0,0-.07c.07-.39.19-.77.24-1.16h0a1,1,0,0,0-1.37-.91,65.34,65.34,0,0,1-6.83-.36,69,69,0,0,1-28.55-9.59A99,99,0,0,1,104.42,164a85,85,0,0,1-10.15-31.44,76.75,76.75,0,0,1,1.6-26.89,62.08,62.08,0,0,1,6.74-15.82A70.19,70.19,0,0,1,133.68,62c12-5.53,25.46-8.46,38.71-7.25a51.36,51.36,0,0,1,22.07,7,1.44,1.44,0,0,0,1.24.16,77.88,77.88,0,0,0-4,42.58c2.36,12.81,7.93,24.81,15,35.7A206.75,206.75,0,0,0,218.8,157C218.69,157.27,218.56,157.53,218.44,157.8Zm46.5,28.83c-.78.13-1.11,1-.25,1.32a5.71,5.71,0,0,0,2.59-.45c-.18,2.66.76,5.24,1.39,7.83a2.07,2.07,0,0,1-1.49,2.48,29.36,29.36,0,0,1-10.29.14,2.34,2.34,0,0,1-2-2.94,48.78,48.78,0,0,0,1.05-4.94c.22-1.35,0-2.21-.9-2.48-.35-.34-4.48-4.63-6.34-6.3-7.74-7-15.6-14-22.59-21.75a196.33,196.33,0,0,1-15.87-21.31c-5.77-8.93-10.7-18.52-13.43-28.83A71.91,71.91,0,0,1,195.42,77a68.61,68.61,0,0,1,6.93-20.28c5.23-9.75,13.53-17.72,23-23.44a76.92,76.92,0,0,1,43.28-11.3,53,53,0,0,1,27.8,10.49c11.93,8.91,20.23,21.94,25.25,35.83a81.66,81.66,0,0,1,2.89,47,84.49,84.49,0,0,1-10.23,24.1,125,125,0,0,1-19.93,25.24C285.66,173.18,276.14,181.45,264.94,186.63Zm106.55,20.26c-6.06,3.54-12.46,6.46-18.49,10-2.09,1.25-4.79,2.87-5.09,5.32a2.14,2.14,0,0,0-.76.68c-.85,1.47-.61,3.36-1.48,4.83a22,22,0,0,1-4.51-.92c-2.06-.58-4.27-1-6.06-2.23,1.24-1.48,2.49-2.95,3.71-4.44a3.94,3.94,0,0,0,1.27.18,1.79,1.79,0,0,0,.84-3.16c-1.13-.79-2.55-1.12-3.75-1.82a136.13,136.13,0,0,1-15.51-10c-8.52-6.39-15.31-15-20.84-24a61.2,61.2,0,0,1-5.76-12.49c3.33-3.1,6.51-6.32,9.51-9.53a113.83,113.83,0,0,0,22.05-35.81,83.54,83.54,0,0,0,4.46-27.06A91,91,0,0,0,324,62c.63-.71,1.27-1.41,1.94-2.09,6-4.32,20.53-5.1,28.08-5.35,23.91-.57,47.26,12.65,58.75,33.71,18.25,30.87,9.4,69.47-13,95.72C392.05,193.52,382.1,200.92,371.49,206.89Z"/>
  <path fill="#87CEEB" d="M111.08 102.25c-3.75-.86-7 3-7.54 6.37-.15.88-.37 2.7 1 2.46.77-.2.54-1.06.78-1.63.79-2 2.46-4 4.64-4.37.68.43.19 3.26.22 4.11-.23 3.21-.42 6.14-.62 9.43a8.86 8.86 0 0 1-.6 3.27s-.07.1-.15.19h0c-.24.12-.55-.26-.71-.41a9.25 9.25 0 0 1-1.43-2.73c-.21-.54-.44-1.08-.65-1.63s-.6-1.27-1.32-1.06a1 1 0 0 0-.69 1.2c.64 2.29 1.93 6 4.6 6.47 1.74.07 2.44-1.89 2.76-3.3.57-2.51.94-5.05 1.33-7.6C113 109.88 115 103.65 111.08 102.25ZM210.37 59.71a5.27 5.27 0 0 0-.14 1.63.85.85 0 0 0 1.69-.11 2.66 2.66 0 0 1 .33-1.29 8 8 0 0 1 2.59-3c2.9-1.79 3.39 3.6 3.18 5.42a35.32 35.32 0 0 1-1.91 8.48 15.49 15.49 0 0 1-1.71 3.87c-1.54-3-1.12-6.61-2.21-9.77a.78.78 0 0 0-1.49 0 6.62 6.62 0 0 0-.18 1.54 18.58 18.58 0 0 0 .4 3.06c.57 2.32.6 5.13 2.4 6.9 1.74 1.26 3.2-1 3.7-2.45a53 53 0 0 0 2.33-6c1-3.71 2-8 .07-11.63C216.35 51.58 211.4 55.54 210.37 59.71ZM409.26 98.75s0 0 0 .06 0 .07 0 .11A.48.48 0 0 0 409.26 98.75Z"/>
  <path fill="#32CD32" d="M405.42,112.64c-.62.45-1.2-1.37-1.4-1.81-.95-3.23-3.16-11,.67-12.89,1.4.07,2.07,1.67,3.29,2.13a1,1,0,0,0,1.29-1.26c-1.23-4.72-6.81-5.6-9-1-2.12,4.1-.59,14,2.56,17.25,2.93,2.6,6.12-.36,7.09-3.31.69-1.79,2.15-5-.16-6.08C406.53,105.48,407.35,111,405.42,112.64ZM404.58,98l.05,0h.05a.9.9,0,0,0-.16,0s0,0,0,0Z"/>
</svg>
