<svg xmlns="http://www.w3.org/2000/svg" id="Outline" viewBox="0 0 512 512">
  <path d="M211 58.85a1.33 1.33 0 0 1-2.46.7c-.11-.17-.21-.33-.32-.47C205.85 54.57 201.3 53 197 51.33a2 2 0 0 1-1.28-2.27c.77-2.89 7.93-.26 9.78 1.4C207.47 52 211 55.86 211 58.85ZM333.06 56.7c-5.76-1.75-10.67.7-14.75 4.67a2.08 2.08 0 0 1-2.74-3.11c2.72-2.47 5.83-4.83 9.5-5.55C329.34 51.86 337.52 53.75 333.06 56.7ZM224.83 145.11c2.1 28.91 68.74 27.35 62.65-5.16C281.38 96.36 223.93 102 224.83 145.11Zm57.28-13.62c11.69 29.42-21 36.43-41.68 28.37-28.72-10.66-5.72-54.11 20.68-46.69C272.25 116 278.34 120.94 282.11 131.49Z"/>
  <path d="M265.76,151.23c-4.48-1.39-9.27-4-10.86-8.66-1.17,2.58-9,8.43-12.68,7.94-1.21-.16-2-2.1-.86-2.58,2.94-1.28,11.56-3.24,12.4-12.47-15.94-1.58-10.9-18.13,2.78-17.59,5.18.49,11.47,5.75,10.64,11.22-.62,5-6.27,5.85-10.37,6.39-.08,6.47,3.9,11.18,10.28,12.36C272.43,148.6,270.35,153.49,265.76,151.23Z"/>
  <path d="M161.84,441.13c8.6.52,18.56-8.48,25.44-6a108.24,108.24,0,0,0,43.68,10c4.71,24,24.63,46.29,49.65,46.48,20.62-.53,39.92-14.16,43.89-35,13.28-2.81,23.28-12.25,33.32-20.76a22.41,22.41,0,0,1,7.75-4.21c41.68-13.21,48.59-50.46,38.13-89.91,16.27-50.46,4.81-106-25-149.44,4.27-10.51.32-20.56-8.94-26.87,3.19-10.89-2.54-24.18-13.73-27.56,1.66-13.71-.69-27.82-15.71-56.36,13.56-9.51,13-32.82,1.16-43.59-12.91-11.43-41-10.72-45.81,8.42C276.05,32,248.78,33.72,227.3,43c-7.59-15.5-32.85-16.17-42.16-1.88-9.35,13.12-6.33,30.68,6.29,39.2-1.3,5.18-23.26,29.09-14.23,65.21-6.43,2.2-6.06,8.48-7.07,13.76-12.78,8.23-22.14,24.33-15.68,39.41-12.86,9.21-8.07,27.39-18.66,37.92-11.08,12.67-23.8,24.69-29,41.21-12.37,23.89-12.65,61.21,21.6,63.09-2.84,2-4.92,2.88-6.19,4.88-15.77-5.49-35.17-1.88-43.35,14C48.26,403.53,127.69,513.94,161.84,441.13Zm-.77-266c-1.16,9.81-1.74,19.45,2.43,28.89C155.75,196.64,155.61,183.91,161.07,175.08Zm17.57-25.67a42.21,42.21,0,0,0,6.62,8.73c-3.19,9.23-2.1,19.11-1.13,28.63-1.43,11.84-1.45,24.11,6.73,33.67C163.45,209.78,160.6,201.8,162.48,173c2.84-4.16,7.31-6.68,11-10C177.4,159.37,173.53,152.28,178.64,149.41Zm112,139.78c.18,7.44-1.14,14.85-1.72,22.26-5.08,1.57-8.9,1.44-7.32-5,1.26-8.91,2.23-17.86,2.63-26.85,16.49,1.42,47-.06,71.56-11.39,1.06,6.64,3,11.69,5.26,18,1.53,5.32,6.54,16.47-1.48,18.09a62.69,62.69,0,0,0-8.37-28.44c2,9.39,5.54,19.68,5.92,29.72a18.38,18.38,0,0,1-6.69,1.56c-7.5-29.21-9.27-30.54-2.43.18a13.22,13.22,0,0,0-7.66,3.08c-3.18-8.06-4.06-17.63-6.72-25.34-2.4,1.27,2.2,21.15,4.38,26.2-3.47.57-6.89-2-10.15-.93-5.07-36.21-6.1-29.31-2.47,1.41a12.29,12.29,0,0,1-8.52.9c-.77-8.34-1.75-16.7-1.9-25.06-4.55-8.49-.85,22.67-.91,24.26-3.42-1.58-7-2.26-10.32-.15-.18-2.28,3.09-30.49-2.44-22.59a192.72,192.72,0,0,0,.16,23.3c-1.81.17-3.48-1.68-5.21-1.28-1.45.34-2.83,1-4.17.4C292.28,309.27,293.68,285.75,290.64,289.19Zm61.64-71.77c0,.07.06.12.08.19l-1.38.74c-6.64-7.57-18.78-5-24.62-13.76-11.62-19.29-9.93-14.49-27.66-25.82,12.59-4.05,24.12-10.87,35.13-18.1,10.1,4.35,8.61,17.62,16.19,24,6.52,5.24,18.78,5.66,20.07,15.6C365.58,207.08,360.25,214.56,352.28,217.42Zm-38.94-27.06c6,5.54,7.9,14.32,14.55,19.31,6.58,5.78,14.75,4.1,21.34,9.57-12.19,5.83-25.57,9.06-38.89,10.61-13.79-2.43-20.16-12.07-25.9-23.59-9.7-6.59-22.13-7.87-25.56-21.41,12.63.18,25.11-2.65,37.37-5.29C299.93,185.34,308.11,186.33,313.34,190.36Zm39.45,63c-13.77-12.75-22.69-.82-36-20,10.14-1.73,20.29-4.09,29.91-8.11a54.76,54.76,0,0,0,2.06,12.28c.34,1.25,1.6,5.93,2.19,8.4C351.57,248.52,352.31,251.58,352.79,253.32ZM356,263.94c-.2.23-33.36,17.62-48.45,2.35-7.64-8.05-18.85-8.45-23.9-19.48-1.47-2.61-.88-6.1-2.19-8.9a243.09,243.09,0,0,0,31-3.86,38.7,38.7,0,0,1,7.75,7.58C330.25,254.05,352.34,247.12,356,263.94Zm-72.84-13.52a22.56,22.56,0,0,0,14.06,12.12c6.39,3.07,11.32,13.24,21,12.85-9.76,1.32-23.89,1.38-33.7,1.38C284.51,276.58,284.4,258.52,283.14,250.42Zm-33.37-17.19c-5.1-2.33-8.73-6.84-10.88-12-12.13-13.86-29.94-22.77-25-44.71,13.65,6,28.44,8,43.23,8.26,1,12,12,18.3,22.21,21.83,9.93,6.62,6.19,19.1,25.21,24.31A229,229,0,0,1,249.77,233.23Zm-6.13-.61c-16.43-1.59-33-4.58-48.54-10.49-9.19-8.92-8.9-22.31-7.69-34.19-1-9.49-3.44-19.09-.91-28.62,7.49,6.26,15.48,12.09,24.49,16-5.68,17,5.5,31.18,18.5,40.84,4.54,3.67,5.69,4.35,8.1,9.73A22.52,22.52,0,0,0,243.64,232.62Zm108.12-95c-.54,1.32-6.28,8.21-9.18,11.05-18.3,18-44.05,27.66-68.94,31.64-33,3.11-72.46-4.23-91.65-33.71a12,12,0,0,1-1.66-4.59c-2-33.3,14.69-56.8,15.27-60.79a3.08,3.08,0,0,0-1.11-2.85c-1-.83-2.23-1.85-2.59-2.1l-.23-.17c-21-23.41,6.54-58.3,33.54-32.05-1.36.76-3.23,1.81-2.25,3.64,2.2,2.72,8.31-2.21,12-3.36,20.47-7.55,45.44-6.88,63.1,7,.46.34,1.08,1.15,1.64.53.65-1.28-1.07-2.84-1.91-3.69,7.92-16.32,33-17.15,43.86-3.56,6.7,10.68,7.37,27-4.48,34a3,3,0,0,0-.5,4.36c9.35,14.42,13.12,28.93,15.48,45C352.26,131.18,353,134.71,351.76,137.67ZM366.14,156c-4.05-4.73-7.78-8.23-13.5-11.13-.17-.09-1.14-.53-1.42-.63,1.16-1.11,2.29-2.27,3.49-3.34a16.35,16.35,0,0,1,6.07,4.3A20.3,20.3,0,0,1,366.14,156Zm5.58,41.62c-3.07-11.35-19.39-9.43-23.64-19.71-2.41-7-4.88-15.32-12.22-18.67A71,71,0,0,0,350,145.6c6.14,3.55,10.9,9.07,16.14,13.54-.43,4-2.75,8.43,1.56,11.24C378,177.25,377.59,188.21,371.72,197.61ZM401,339c-18.56,49.68-74.39,33-61.18-24,2.59-.45,4.78-2.57,7.41-3,7.82-.13,15-2.25,20.34-8.27,2.88-8.7-2.57-18.25-4.8-26.61-1.63-6.8-1.75-12.4-3.95-18.25-4.1-11.57-6.15-23.75-7.45-35.92.44-.22.89-.42,1.33-.65,7.35-5.86,15.71-10.91,20.74-19.3.12-.21.95-1.55,1.45-2.44,1-1.77,2.27-4.21,2.5-4.75,14.39,25.1,26.85,51.87,29.54,81C410.69,298,406.4,319.09,401,339ZM256.85,365.48c24.07-8.37,47.79,13.1,55.95,34.43.39,1.55,2.08,3.43,2.5.84-1.42-13.08-10.7-24.17-20.64-32.13,4.8-17,4.77-35,1.84-52.43,4.07,1.9,7.63.62,11.8-1.19,6.94,2.25,15,4.57,21.36-.7a16,16,0,0,0,6.12,1.26c-6.42,22.42,3.15,58.53,31.43,57.66,14.67-.26,26.66-10.93,33.24-23.9,6.46,41.73-.4,64.15-39.48,79a23.64,23.64,0,0,0-7.87,4.92c-8.14,7.71-17.17,14.68-27.54,19,.33-3.64,2.41-7.76,1.14-11.24a2.4,2.4,0,0,0-4.25,1.13c-2.48,12.54-5.22,26.85-15.91,35.12-15.43,11.84-38.4,12.89-52.23-2C227.83,456.63,222.28,377.89,256.85,365.48Zm-25,25.94c-15.06,5.9-64.42-5.46-62.28-44.95.11-2,.77-9.57,1-10.44,4.95-23,12.81-29.11,23.67-45.41h0c6.37-10.81,10-21.79,17.77-31.66,17.41-22.09,53.26-11.35,68.68,8.41a213,213,0,0,1-2.07,28c-1.73,12.53-4.57,25.44,13.37,20.42,2.86,18.2,3.22,33.36-.32,50.63C265.6,354.24,241.48,358.42,231.84,391.42ZM86.42,419.21C74.16,398,71.11,361.53,97.58,350.11c11.43-3.41,24.47-.67,34.06,6.21a2.4,2.4,0,0,0,2.73-3.76,26.49,26.49,0,0,0-7.7-5c2.81-2,5.37-4.69,8.5-6.08,6.24-2.79,8.76-1.4,8.24-5.59,1.63-55.11,41.2-68.31,36.47-91.6-.45-2.22-2.32-3.58-2.18-.47,1.15,25.61-36.65,34-39.15,91.3C90,344.91,100,283.49,120.72,259.85c7.27-9.69,16.87-17.49,23.22-27.92,4.71-9.87,3.86-22.22,11.77-30.8,24.71,31.94,83.6,37.17,121,37,2.83,7.14,1.66,13.81,1.56,21.44C261,241.77,233.39,235.86,213,252.5c-9.93,7.3-13.52,18.71-18.33,29-18.6,28.42-30.9,38.54-29,74.94,1.74,33.13,46.58,44.81,64.84,39.47a111.06,111.06,0,0,0-.58,44,101.76,101.76,0,0,1-39.9-9.26c-9.78-4.61-17.74,5.33-27.32,6.61.47-3.72,2.6-20.6-3-20-2.6.77-1.13,3.54-1.07,5.4-.21,7.82-.09,16.17-4.26,23.08C132.38,480.13,97.13,444.45,86.42,419.21Z"/>
  <polygon points="170.26 338.68 170.26 338.68 170.26 338.68 170.26 338.68"/>
  <path d="M170.27 338.68h0ZM264 457.26c1.86 4.17 9.53 13.69 18.53 8.7 18.73-10.38 4.77-73.57-14.79-75.72C243 392.56 254.41 443.62 264 457.26Zm3.51-63.53c16.06 4.18 29.39 66.36 11 69.66-16.18 2.91-20.22-31.3-21.73-44.13C256.27 411.5 257 393.75 267.48 393.73ZM93 389.84C94 406 107.74 441 125.78 436.28c9.65-2.51 8.12-16.14 7.82-21.68-1.57-15.2-8.12-32.9-19.78-43.2C99.17 361.59 92.13 376.77 93 389.84Zm24.59-9.24c7.37 11.65 14.58 27.56 13 41.91-.47 4.29-3 13.48-9.5 11.26C107.17 429 101.49 410 97.86 396.89 93.33 380.26 102.73 359.79 117.59 380.6ZM347.88 306.88h0v0ZM232.53 112.58c-11.09 1.89-11.44-21.68.06-18.4C239.47 96.89 239.4 109.91 232.53 112.58ZM288.51 110.44c-9.76 6.08-14-12-7.07-16.47C291.24 87.79 296.23 105.73 288.51 110.44Z"/>
</svg>
