<svg xmlns="http://www.w3.org/2000/svg" enable-background="new 0 0 53 53" viewBox="0 0 53 53"><g fill="#8B4513"><g><path d="M32.3398438,16.7812271H20.6699219c-0.4140625,0-0.75-0.3359375-0.75-0.75s0.3359375-0.75,0.75-0.75h11.6699219 c0.4140625,0,0.75,0.3359375,0.75,0.75S32.7539062,16.7812271,32.3398438,16.7812271z"/></g><g><path d="M49.5996094,28.2114029H3.3994141c-0.9091797,0-1.6494141-0.7402344-1.6494141-1.6499023v-9.6298828 c0-0.9101562,0.7402344-1.6503906,1.6494141-1.6503906h10.2802734c0.4140625,0,0.75,0.3359375,0.75,0.75 s-0.3359375,0.75-0.75,0.75H3.3994141c-0.0703125,0-0.1494141,0.0615234-0.1494141,0.1503906v9.6298828 c0,0.0898438,0.0771484,0.1499023,0.1494141,0.1499023h46.2001953c0.0859375,0,0.1503906-0.0644531,0.1503906-0.1499023 v-9.6298828c0-0.0859375-0.0644531-0.1503906-0.1503906-0.1503906H39.3193359c-0.4140625,0-0.75-0.3359375-0.75-0.75 s0.3359375-0.75,0.75-0.75h10.2802734c0.9101562,0,1.6503906,0.7402344,1.6503906,1.6503906v9.6298828 C51.25,27.4711685,50.5097656,28.2114029,49.5996094,28.2114029z"/></g><g><path d="M45.2099609,51.2460709H7.7929688c-1.6142578,0-2.9277344-1.3129883-2.9277344-2.9267578V27.4618912 c0-0.4140625,0.3359375-0.75,0.75-0.75h41.7724609c0.4140625,0,0.75,0.3359375,0.75,0.75V48.319313 C48.1376953,49.9330826,46.8242188,51.2460709,45.2099609,51.2460709z M6.3652344,28.2118912V48.319313 c0,0.7866211,0.640625,1.4267578,1.4277344,1.4267578h37.4169922c0.7871094,0,1.4277344-0.6401367,1.4277344-1.4267578V28.2118912 H6.3652344z"/></g><g><path d="M32.3398438,16.7812271H20.6699219c-0.4140625,0-0.75-0.3359375-0.75-0.75s0.3359375-0.75,0.75-0.75h11.6699219 c0.4140625,0,0.75,0.3359375,0.75,0.75S32.7539062,16.7812271,32.3398438,16.7812271z"/></g><g><path d="M32.6992188,28.2114029H20.2998047c-0.4140625,0-0.75-0.3359375-0.75-0.75V16.3212662 c0-0.4140625,0.3359375-0.75,0.75-0.75s0.75,0.3359375,0.75,0.75v10.3901367h10.8994141V16.3212662 c0-0.4140625,0.3359375-0.75,0.75-0.75s0.75,0.3359375,0.75,0.75v11.1401367 C33.4492188,27.8754654,33.1132812,28.2114029,32.6992188,28.2114029z"/></g><g><path d="M30.3496094,51.2460709h-7.6962891c-0.4140625,0-0.75-0.3359375-0.75-0.75V27.4618912 c0-0.4140625,0.3359375-0.75,0.75-0.75h7.6962891c0.4140625,0,0.75,0.3359375,0.75,0.75v23.0341797 C31.0996094,50.9101334,30.7636719,51.2460709,30.3496094,51.2460709z M23.4033203,49.7460709h6.1962891V28.2118912h-6.1962891 V49.7460709z"/></g><g><g><path d="M26.5097656,16.7812271c-0.4140625,0-0.75-0.3359375-0.75-0.75s0.3359375-0.75,0.75-0.75h1.6503906 c0.9404297-0.1171875,1.9082031-0.2900391,2.7900391-0.5078125c0.0673828-0.015625,0.1191406-0.0317383,0.1738281-0.0488281 c0.0283203-0.0087891,0.0673828-0.019043,0.109375-0.0283203v-0.0014648 c0.5390625-0.1386719,1.0927734-0.3129883,1.7402344-0.5483398c2.6933594-1.0493164,4.0908203-2.4873047,4.7861328-3.5073242 c0.3417969-0.4985352,0.3916016-1.152832,0.1308594-1.7094727c-0.9404297-2.0366216-3.4628906-6.6381841-6.6787109-5.492188 c-1.9042969,0.6870117-3.2353516,3.5385742-3.7470703,8.0288086c-0.0478516,0.4111328-0.4169922,0.7055664-0.8300781,0.6601562 c-0.4111328-0.046875-0.7070312-0.418457-0.6601562-0.8300781c0.5966797-5.2343755,2.1884766-8.3535156,4.7304688-9.2705078 C33.7919922,0.9257579,36.9052734,3.2079844,39.25,8.2973404c0.4833984,1.03125,0.3876953,2.2543945-0.2509766,3.1879883 c-0.8144531,1.1943359-2.4296875,2.8701172-5.4970703,4.0649414c-0.7099609,0.2583008-1.3076172,0.4462891-1.8955078,0.5976562 c-0.0097656,0.0024414-0.0205078,0.0048828-0.0302734,0.0073242c-0.1259766,0.0380859-0.2050781,0.0610352-0.2832031,0.078125 c-0.9238281,0.2290039-1.9541016,0.4125977-3.0439453,0.5424805L26.5097656,16.7812271z"/></g><g><path d="M26.4892578,16.7812271h-1.6396484c-1.1835938-0.1347656-2.2177734-0.3183594-3.1601562-0.5517578 c-0.0810547-0.0180664-0.1757812-0.0463867-0.2714844-0.078125c-0.0058594-0.0014648-0.0117188-0.0029297-0.0175781-0.0043945 c-0.6923828-0.1806641-1.3271484-0.3808594-1.8886719-0.5947266C16.4433594,14.3705826,14.8212891,12.6879654,14,11.4838638 c-0.6269531-0.9345703-0.7226562-2.152832-0.2529297-3.1835938c2.3505859-5.0937505,5.4697266-7.3764653,8.5458984-6.2749028 c2.5439453,0.9174805,4.1347656,4.0366211,4.7314453,9.2709961c0.046875,0.4116211-0.2490234,0.7832031-0.6601562,0.8300781 c-0.4189453,0.050293-0.7832031-0.2480469-0.8300781-0.6601562c-0.5117188-4.4907231-1.8427734-7.3422856-3.7490234-8.0292969 c-3.203125-1.1494141-5.7353516,3.4550781-6.6748047,5.4882817c-0.2539062,0.5581055-0.2041016,1.2172852,0.1328125,1.7182617 c0.6972656,1.0229492,2.0996094,2.4663086,4.8056641,3.5083008c0.4970703,0.1894531,1.0664062,0.3691406,1.6904297,0.5332031 c0.0341797,0.0063477,0.0683594,0.0151367,0.0996094,0.0253906c0.0644531,0.0219727,0.1279297,0.0444336,0.1923828,0.0585938 c0.9003906,0.2226562,1.8720703,0.3950195,2.90625,0.5175781l1.5517578-0.0053711c0.4140625,0,0.75,0.3359375,0.75,0.75 S26.9033203,16.7812271,26.4892578,16.7812271z"/></g></g><g><g><path d="M36.0498047,25.041481c-0.0771484,0-0.1542969-0.0117188-0.2304688-0.0366211 c-0.3144531-0.1015625-0.5253906-0.3969727-0.5195312-0.7275391c0.0742188-3.9331055-1.6328125-6.1831055-3.078125-7.3779297 c-0.1279297-0.1162109-0.2265625-0.1889648-0.3242188-0.2626953c-0.2880859-0.2197266-0.5585938-0.4003906-0.8173828-0.5458984 c-0.2451172-0.1235352-0.4150391-0.3769531-0.4150391-0.6694336c0-0.4140625,0.3310547-0.75,0.7451172-0.75 c0.1279297,0,0.2626953,0.0327148,0.3740234,0.0947266c0.28125,0.15625,0.5712891,0.34375,0.8632812,0.5581055 c-0.09375-0.1152344-0.1542969-0.2592773-0.1660156-0.418457c-0.0302734-0.4130859,0.2802734-0.7724609,0.6943359-0.8022461 c2.7958984-0.2011719,5.0039062,0.237793,6.5673828,1.309082c3.8535156,2.6469727,2.3720703,7.9433594,2.3076172,8.1674805 c-0.0742188,0.2539062-0.2753906,0.4501953-0.5302734,0.5170898c-0.2587891,0.0664062-0.5283203-0.0053711-0.7158203-0.1904297 l-2.1259766-2.0869141l-2.0126953,2.8994141C36.5234375,24.9247818,36.2910156,25.041481,36.0498047,25.041481z M32.9345703,15.541481c0.0917969,0.0712891,0.1826172,0.1450195,0.2734375,0.2285156 c1.3759766,1.1362305,2.9824219,3.1206055,3.4560547,6.3212891l1.2890625-1.8574219 c0.1259766-0.1816406,0.3261719-0.2983398,0.5458984-0.3188477c0.2177734-0.0234375,0.4384766,0.0566406,0.5957031,0.2114258 l1.7392578,1.7075195c0.1376953-1.4853516-0.0019531-3.8535156-1.9394531-5.1845703 c-1.2744141-0.8735352-3.1591797-1.2260742-5.6113281-1.0498047 C33.1689453,15.6093521,33.0419922,15.5868912,32.9345703,15.541481z"/></g><g><path d="M16.9599609,25.041481c-0.2402344,0-0.4726562-0.1162109-0.6152344-0.3212891l-2.0224609-2.9018555l-2.1269531,2.0883789 c-0.1875,0.1855469-0.4580078,0.2573242-0.7158203,0.1904297c-0.2548828-0.0668945-0.4560547-0.2631836-0.5302734-0.5166016 c-0.0644531-0.2246094-1.546875-5.5209961,2.3056641-8.1674805c1.5664062-1.0722656,3.7871094-1.5136719,6.578125-1.3095703 c0.4140625,0.0297852,0.7246094,0.3891602,0.6943359,0.8022461c-0.0117188,0.1601562-0.0722656,0.3046875-0.1669922,0.4199219 c0.2929688-0.215332,0.5849609-0.4042969,0.8662109-0.5605469c0.4755859-0.2612305,1.1191406,0.1152344,1.1181641,0.65625 c0,0.3100586-0.1855469,0.5761719-0.4521484,0.6904297c-0.2451172,0.1396484-0.5029297,0.3129883-0.7675781,0.5151367 c-0.1152344,0.0874023-0.2353516,0.1796875-0.3466797,0.2714844c-1.4394531,1.2001953-3.1425781,3.4555664-3.0683594,7.3789062 c0.0058594,0.3300781-0.2041016,0.6254883-0.5185547,0.7275391C17.1152344,25.0297623,17.0371094,25.041481,16.9599609,25.041481 z M14.4296875,19.9115982c0.0234375,0,0.0458984,0.0009766,0.0693359,0.003418 c0.2197266,0.0205078,0.4199219,0.1367188,0.5458984,0.3178711l1.2998047,1.8647461 c0.4726562-3.1962891,2.078125-5.1889648,3.4746094-6.3525391c0.0839844-0.0693359,0.171875-0.1386719,0.2578125-0.2050781 c-0.1074219,0.046875-0.234375,0.0708008-0.3515625,0.0595703c-2.4550781-0.1762695-4.3447266,0.1762695-5.6220703,1.050293 c-1.9482422,1.3383789-2.0830078,3.7050781-1.9414062,5.1875l1.7421875-1.7109375 C14.0449219,19.9882584,14.234375,19.9115982,14.4296875,19.9115982z"/></g></g><g><path d="M31.1601562,16.7812271h-9.3203125c-0.4140625,0-0.75-0.3359375-0.75-0.75s0.3359375-0.75,0.75-0.75h9.3203125 c0.4140625,0,0.75,0.3359375,0.75,0.75S31.5742188,16.7812271,31.1601562,16.7812271z"/></g><g><path d="M21.8710938,16.251442c-0.0302734,0-0.0605469-0.0019531-0.0917969-0.0053711 c-0.4111328-0.050293-0.7041016-0.4243164-0.6533203-0.8354492l0.0292969-0.2402344 c0.4267578-2.5297852,2.5654297-4.4238281,5.0898438-4.5380859c0.0673828-0.0170898,0.3691406-0.0234375,0.578125,0.0063477 c2.4619141,0.1079102,4.5966797,1.9995117,5.0068359,4.4912109c0.0146484,0.050293,0.0302734,0.1689453,0.0439453,0.2758789 c0.0498047,0.4111328-0.2421875,0.7875977-0.6533203,0.8378906c-0.4179688,0.0478516-0.7851562-0.2402344-0.8349609-0.6513672 c-0.0068359-0.0556641-0.0126953-0.112793-0.0244141-0.1630859c-0.3076172-1.8520508-1.8476562-3.2158203-3.6757812-3.2988281 C26.5791016,12.1191177,26.5361328,12.1225357,26.5,12.1215591c-0.0390625,0-0.0810547-0.0019531-0.1181641,0.0029297 c-1.8925781,0.0888672-3.4375,1.4580078-3.7431641,3.2617188l-0.0244141,0.2060547 C22.5683594,15.9726334,22.2451172,16.251442,21.8710938,16.251442z"/></g></g></svg>